<svg xmlns="http://www.w3.org/2000/svg" xmlns:xlink="http://www.w3.org/1999/xlink" xmlns:lucid="lucid" width="1728.21" height="840"><g transform="translate(1020 760)" lucid:page-tab-id="~L~eS_iITtak"><path d="M-1000-1000h2000V500h-2000z" fill="#fff"/><path d="M-374.07-639v4.98m0 5v9.95m0 5v9.95m0 5v9.95m0 5v9.95m0 5v9.95m0 5v9.95m0 5v9.95m0 5v9.95m0 5v9.95m0 5v9.95m0 5v9.95m0 5v9.95m0 5v9.95m0 5v9.95m0 5v9.95m0 5v9.95m0 5v9.95m0 5v9.95m0 5v9.95m0 5v9.95m0 5v9.95m0 5v9.95m0 5v9.95m0 5v9.95m0 5v9.95m0 5v9.95m0 5v9.95m0 5v9.95m0 5v9.95m0 5v9.95m0 5v9.95m0 5v9.95m0 5v9.95m0 5v9.95m0 5v9.95m0 5v9.95m0 5v9.95m0 5v9.95m0 5v9.95m0 5V-41" stroke="#3a414a" fill="none"/><path d="M-373.57-639h-1v-.5h1zM-373.57-40.5h-1v-.5h1z" stroke="#3a414a" stroke-width=".05" fill="#3a414a"/><path d="M-924.1-639v4.98m0 5v9.95m0 5v9.95m0 5v9.95m0 5v9.95m0 5v9.95m0 5v9.95m0 5v9.95m0 5v9.95m0 5v9.95m0 5v9.95m0 5v9.95m0 5v9.95m0 5v9.95m0 5v9.95m0 5v9.95m0 5v9.95m0 5v9.95m0 5v9.95m0 5v9.95m0 5v9.95m0 5v9.95m0 5v9.95m0 5v9.95m0 5v9.95m0 5v9.95m0 5v9.95m0 5v9.95m0 5v9.95m0 5v9.95m0 5v9.95m0 5v9.95m0 5v9.95m0 5v9.95m0 5v9.95m0 5v9.95m0 5v9.95m0 5v9.95m0 5v9.95m0 5v9.95m0 5V-41" stroke="#3a414a" fill="none"/><path d="M-923.6-639h-1v-.5h1zM-923.6-40.5h-1v-.5h1z" stroke="#3a414a" stroke-width=".05" fill="#3a414a"/><path d="M385.96-639v4.98m0 5v9.95m0 5v9.95m0 5v9.95m0 5v9.95m0 5v9.95m0 5v9.95m0 5v9.95m0 5v9.95m0 5v9.95m0 5v9.95m0 5v9.95m0 5v9.95m0 5v9.95m0 5v9.95m0 5v9.95m0 5v9.95m0 5v9.95m0 5v9.95m0 5v9.95m0 5v9.95m0 5v9.95m0 5v9.95m0 5v9.95m0 5v9.95m0 5v9.95m0 5v9.95m0 5v9.95m0 5v9.95m0 5v9.95m0 5v9.95m0 5v9.95m0 5v9.95m0 5v9.95m0 5v9.95m0 5v9.95m0 5v9.95m0 5v9.95m0 5v9.95m0 5v9.95m0 5V-41" stroke="#3a414a" fill="none"/><path d="M386.46-639h-1v-.5h1zM386.46-40.5h-1v-.5h1z" stroke="#3a414a" stroke-width=".05" fill="#3a414a"/><path d="M-661.6-639v4.98m0 5v9.95m0 5v9.95m0 5v9.95m0 5v9.95m0 5v9.95m0 5v9.95m0 5v9.95m0 5v9.95m0 5v9.95m0 5v9.95m0 5v9.95m0 5v9.95m0 5v9.95m0 5v9.95m0 5v9.95m0 5v9.95m0 5v9.95m0 5v9.95m0 5v9.95m0 5v9.95m0 5v9.95m0 5v9.95m0 5v9.95m0 5v9.95m0 5v9.95m0 5v9.95m0 5v9.95m0 5v9.95m0 5v9.95m0 5v9.95m0 5v9.95m0 5v9.95m0 5v9.95m0 5v9.95m0 5v9.95m0 5v9.95m0 5v9.95m0 5v9.95m0 5v9.95m0 5V-41" stroke="#3a414a" fill="none"/><path d="M-661.1-639h-1v-.5h1zM-661.1-40.5h-1v-.5h1z" stroke="#3a414a" stroke-width=".05" fill="#3a414a"/><path d="M-1000-734a6 6 0 0 1 6-6h139.82a6 6 0 0 1 6 6v88a6 6 0 0 1-6 6H-994a6 6 0 0 1-6-6z" stroke="#3a414a" fill="#fff"/><use xlink:href="#a" transform="matrix(1,0,0,1,-1000,-740) translate(19.30746913580247 55.27777777777778)"/><use xlink:href="#b" transform="matrix(1,0,0,1,-1000,-740) translate(69.86302469135802 55.27777777777778)"/><path d="M26.4-639v4.98m0 5v9.95m0 5v9.95m0 5v9.95m0 5v9.95m0 5v9.95m0 5v9.95m0 5v9.95m0 5v9.95m0 5v9.95m0 5v9.95m0 5v9.95m0 5v9.95m0 5v9.95m0 5v9.95m0 5v9.95m0 5v9.95m0 5v9.95m0 5v9.95m0 5v9.95m0 5v9.95m0 5v9.95m0 5v9.95m0 5v9.95m0 5v9.95m0 5v9.95m0 5v9.95m0 5v9.95m0 5v9.95m0 5v9.95m0 5v9.95m0 5v9.95m0 5v9.95m0 5v9.95m0 5v9.95m0 5v9.95m0 5v9.95m0 5v9.95m0 5v9.95m0 5v9.95m0 5V-41" stroke="#3a414a" fill="none"/><path d="M26.9-639h-1v-.5h1zM26.9-40.5h-1v-.5h1z" stroke="#3a414a" stroke-width=".05" fill="#3a414a"/><path d="M627.1-639v4.98m0 5v9.95m0 5v9.95m0 5v9.95m0 5v9.95m0 5v9.95m0 5v9.95m0 5v9.95m0 5v9.95m0 5v9.95m0 5v9.95m0 5v9.95m0 5v9.95m0 5v9.95m0 5v9.95m0 5v9.95m0 5v9.95m0 5v9.95m0 5v9.95m0 5v9.95m0 5v9.95m0 5v9.95m0 5v9.95m0 5v9.95m0 5v9.95m0 5v9.95m0 5v9.95m0 5v9.95m0 5v9.95m0 5v9.95m0 5v9.95m0 5v9.95m0 5v9.95m0 5v9.95m0 5v9.95m0 5v9.95m0 5v9.95m0 5v9.95m0 5v9.95m0 5v9.95m0 5V-41" stroke="#3a414a" fill="none"/><path d="M627.6-639h-1v-.5h1zM627.6-40.5h-1v-.5h1z" stroke="#3a414a" stroke-width=".05" fill="#3a414a"/><path d="M-1000-34a6 6 0 0 1 6-6h139.82a6 6 0 0 1 6 6v88a6 6 0 0 1-6 6H-994a6 6 0 0 1-6-6z" stroke="#3a414a" fill="#fff"/><use xlink:href="#a" transform="matrix(1,0,0,1,-1000,-40) translate(19.30746913580247 55.27777777777778)"/><use xlink:href="#b" transform="matrix(1,0,0,1,-1000,-40) translate(69.86302469135802 55.27777777777778)"/><path d="M-728.18-734a6 6 0 0 1 6-6H-601a6 6 0 0 1 6 6v88a6 6 0 0 1-6 6H-722.2a6 6 0 0 1-6-6z" stroke="#3a414a" fill="#fff"/><use xlink:href="#c" transform="matrix(1,0,0,1,-728.1851851851852,-740) translate(19.12845679012345 55.27777777777778)"/><path d="M-728.18-34a6 6 0 0 1 6-6H-601a6 6 0 0 1 6 6v88a6 6 0 0 1-6 6H-722.2a6 6 0 0 1-6-6z" stroke="#3a414a" fill="#fff"/><use xlink:href="#c" transform="matrix(1,0,0,1,-728.1851851851852,-40) translate(19.12845679012345 55.27777777777778)"/><path d="M-475-734a6 6 0 0 1 6-6h189.86a6 6 0 0 1 6 6v88a6 6 0 0 1-6 6H-469a6 6 0 0 1-6-6z" stroke="#3a414a" fill="#fff"/><use xlink:href="#d" transform="matrix(1,0,0,1,-475.01234567901236,-740) translate(19.276604938271596 55.27777777777778)"/><use xlink:href="#e" transform="matrix(1,0,0,1,-475.01234567901236,-740) translate(87.79512345679012 55.27777777777778)"/><path d="M-475-34a6 6 0 0 1 6-6h189.86a6 6 0 0 1 6 6v88a6 6 0 0 1-6 6H-469a6 6 0 0 1-6-6z" stroke="#3a414a" fill="#fff"/><use xlink:href="#d" transform="matrix(1,0,0,1,-475.01234567901236,-40) translate(19.276604938271596 55.27777777777778)"/><use xlink:href="#e" transform="matrix(1,0,0,1,-475.01234567901236,-40) translate(87.79512345679012 55.27777777777778)"/><path d="M-153.14-734a6 6 0 0 1 6-6h347.1a6 6 0 0 1 6 6v88a6 6 0 0 1-6 6h-347.1a6 6 0 0 1-6-6z" stroke="#3a414a" fill="#fff"/><use xlink:href="#f" transform="matrix(1,0,0,1,-153.1358024691358,-740) translate(19.165493827160482 55.27777777777778)"/><use xlink:href="#g" transform="matrix(1,0,0,1,-153.1358024691358,-740) translate(138.85685185185184 55.27777777777778)"/><use xlink:href="#h" transform="matrix(1,0,0,1,-153.1358024691358,-740) translate(274.5358641975308 55.27777777777778)"/><path d="M-153.14-34a6 6 0 0 1 6-6h347.1a6 6 0 0 1 6 6v88a6 6 0 0 1-6 6h-347.1a6 6 0 0 1-6-6z" stroke="#3a414a" fill="#fff"/><use xlink:href="#f" transform="matrix(1,0,0,1,-153.1358024691358,-40) translate(19.165493827160482 55.27777777777778)"/><use xlink:href="#g" transform="matrix(1,0,0,1,-153.1358024691358,-40) translate(138.85685185185184 55.27777777777778)"/><use xlink:href="#h" transform="matrix(1,0,0,1,-153.1358024691358,-40) translate(274.5358641975308 55.27777777777778)"/><path d="M325.96-734a6 6 0 0 1 6-6h108a6 6 0 0 1 6 6v88a6 6 0 0 1-6 6h-108a6 6 0 0 1-6-6z" stroke="#3a414a" fill="#fff"/><use xlink:href="#i" transform="matrix(1,0,0,1,325.96296296296305,-740) translate(34.171666666666674 55.27777777777778)"/><path d="M325.96-34a6 6 0 0 1 6-6h108a6 6 0 0 1 6 6v88a6 6 0 0 1-6 6h-108a6 6 0 0 1-6-6z" stroke="#3a414a" fill="#fff"/><use xlink:href="#i" transform="matrix(1,0,0,1,325.96296296296305,-40) translate(34.171666666666674 55.27777777777778)"/><path d="M565.96-734a6 6 0 0 1 6-6H682.2a6 6 0 0 1 6 6v88a6 6 0 0 1-6 6H571.97a6 6 0 0 1-6-6z" stroke="#3a414a" fill="#fff"/><use xlink:href="#j" transform="matrix(1,0,0,1,565.962962962963,-740) translate(19.091419753086406 55.27777777777778)"/><path d="M565.96-34a6 6 0 0 1 6-6H682.2a6 6 0 0 1 6 6v88a6 6 0 0 1-6 6H571.97a6 6 0 0 1-6-6z" stroke="#3a414a" fill="#fff"/><use xlink:href="#j" transform="matrix(1,0,0,1,565.962962962963,-40) translate(19.091419753086406 55.27777777777778)"/><path d="M-923.6-579.6h245.62M-923.58-579.6h-.5" stroke="#3a414a" fill="none"/><path d="M-663.22-579.6l-14.26 4.63v-9.26z" stroke="#3a414a" fill="#3a414a"/><use xlink:href="#k" transform="matrix(1,0,0,1,-823.4032625484772,-604.926172613261) translate(0 14.217421742174219)"/><path d="M-661.1-519.7h270.64M-661.1-519.7h-.5" stroke="#3a414a" fill="none"/><path d="M-375.7-519.7l-14.26 4.63v-9.26z" stroke="#3a414a" fill="#3a414a"/><use xlink:href="#l" transform="matrix(1,0,0,1,-562.6607910791081,-545.0261626132611) translate(0 14.217421742174219)"/><path d="M-661.1-459.8h270.64M-661.1-459.8h-.5" stroke="#3a414a" fill="none"/><path d="M-375.7-459.8l-14.26 4.63v-9.26z" stroke="#3a414a" fill="#3a414a"/><use xlink:href="#m" transform="matrix(1,0,0,1,-642.9546676889922,-485.1261526132612) translate(0 14.217421742174219)"/><use xlink:href="#n" transform="matrix(1,0,0,1,-642.9546676889922,-485.1261526132612) translate(43.34338989454502 14.217421742174219)"/><use xlink:href="#o" transform="matrix(1,0,0,1,-642.9546676889922,-485.1261526132612) translate(145.77793890500163 14.217421742174219)"/><use xlink:href="#p" transform="matrix(1,0,0,1,-642.9546676889922,-485.1261526132612) translate(201.95650120567615 14.217421742174219)"/><path d="M-373.57-399.9h4.9m4.93 0h9.84m4.92 0h9.83m4.92 0h9.84m4.92 0h9.84m4.92 0h9.83m4.93 0h9.84m4.92 0h9.82m4.92 0h9.84m4.9 0h9.85m4.92 0h9.83m4.92 0h9.84m4.92 0h9.83m4.9 0h9.85m4.9 0h9.85m4.92 0h9.83m4.92 0h9.84m4.93 0h9.83m4.92 0h9.84m4.9 0h9.85m4.92 0h9.82m4.92 0h9.84m4.92 0h9.83m4.92 0h9.84m4.9 0h9.84m4.92 0H.2m4.9 0h4.93M-373.56-399.9h-.5" stroke="#3a414a" fill="none"/><path d="M24.8-399.9l-14.27 4.63v-9.27z" stroke="#3a414a" fill="#3a414a"/><use xlink:href="#q" transform="matrix(1,0,0,1,-199.9695691791401,-425.2261426132614) translate(0 14.217421742174219)"/><path d="M46.4-380h130.42l12 12v48H46.42z" stroke="#3a414a" fill="#fff"/><path d="M176.82-379.52V-368h11.53" stroke="#3a414a" fill="#fff"/><use xlink:href="#r" transform="matrix(1,0,0,1,51.413580246913625,-375) translate(15.296296296296298 30.27777777777778)"/><path d="M-661.1-260.13H369.58M-661.1-260.13h-.5" stroke="#3a414a" fill="none"/><path d="M384.35-260.13l-14.27 4.63v-9.27z" stroke="#3a414a" fill="#3a414a"/><use xlink:href="#k" transform="matrix(1,0,0,1,-168.3754847706993,-285.4594526132613) translate(0 14.217421742174219)"/><path d="M385.46-200.23h-4.96m-4.97 0h-9.93m-4.97 0h-9.93m-4.97 0h-9.93m-4.97 0h-9.93m-4.96 0H306m-4.96 0h-9.93m-4.96 0h-9.93m-4.96 0h-9.93m-4.96 0h-9.93m-4.96 0h-9.93m-4.95 0h-9.94m-4.95 0h-9.94m-4.95 0h-9.93m-4.97 0h-9.93m-4.97 0h-9.93m-4.97 0h-9.93m-4.97 0h-9.93m-4.96 0h-9.94m-4.96 0h-9.94m-4.96 0h-9.93m-4.97 0h-9.93m-4.97 0h-9.93m-4.97 0H42.8M385.45-200.23h.5" stroke="#3a414a" fill="none"/><path d="M28.03-200.23l14.27-4.64v9.27z" stroke="#3a414a" fill="#3a414a"/><g><use xlink:href="#s" transform="matrix(1,0,0,1,121.92042815392652,-225.55944261326144) translate(0 14.217421742174219)"/><use xlink:href="#t" transform="matrix(1,0,0,1,121.92042815392652,-225.55944261326144) translate(56.17856230067452 14.217421742174219)"/></g><path d="M385.46-140.33h-4.96m-4.97 0h-9.93m-4.97 0h-9.93m-4.97 0h-9.93m-4.97 0h-9.93m-4.96 0H306m-4.96 0h-9.93m-4.96 0h-9.93m-4.96 0h-9.93m-4.96 0h-9.93m-4.96 0h-9.93m-4.95 0h-9.94m-4.95 0h-9.94m-4.95 0h-9.93m-4.97 0h-9.93m-4.97 0h-9.93m-4.97 0h-9.93m-4.97 0h-9.93m-4.96 0h-9.94m-4.96 0h-9.94m-4.96 0h-9.93m-4.97 0h-9.93m-4.97 0h-9.93m-4.97 0H42.8M385.45-140.33h.5" stroke="#3a414a" fill="none"/><path d="M28.03-140.33l14.27-4.64v9.27z" stroke="#3a414a" fill="#3a414a"/><g><use xlink:href="#s" transform="matrix(1,0,0,1,145.56676500983434,-165.65943261326146) translate(0 14.217421742174219)"/><use xlink:href="#u" transform="matrix(1,0,0,1,145.56676500983434,-165.65943261326146) translate(56.17856230067452 14.217421742174219)"/></g><path d="M26.9-80.43h5m5 0h9.97m5 0h9.97m5 0h9.97m5 0h9.98m5 0h9.97m5 0h9.97m5 0h9.97m4.98 0h9.97m5 0h9.97m5 0h9.97m4.98 0h9.98m5 0h9.97m5 0h9.97m5 0h9.97m5 0h9.97m5 0h9.97m5 0h9.98m5 0h9.96m5 0h9.97m5 0h9.98m5 0h9.97m5 0h9.97m5 0h9.97m4.98 0h9.98m5 0h9.97m5 0h9.97m5 0h9.96m5 0h9.97m5 0H466m5 0h9.97m5 0h9.97m5 0h9.97m5 0h9.98m5 0h9.97m5 0h9.97m5 0h9.96m5 0h9.97m5 0h9.97m5 0h4.98M26.93-80.43h-.52" stroke="#3a414a" fill="none"/><path d="M625.47-80.43L611.2-75.8v-9.27z" stroke="#3a414a" fill="#3a414a"/><g><use xlink:href="#v" transform="matrix(1,0,0,1,307.5466074385217,-105.75942261326139) translate(0 14.217421742174219)"/></g><defs><path fill="#3a414a" d="M33 0v-248h34V0H33" id="w"/><path fill="#3a414a" d="M117-194c89-4 53 116 60 194h-32v-121c0-31-8-49-39-48C34-167 62-67 57 0H25l-1-190h30c1 10-1 24 2 32 11-22 29-35 61-36" id="x"/><path fill="#3a414a" d="M101-234c-31-9-42 10-38 44h38v23H63V0H32v-167H5v-23h27c-7-52 17-82 69-68v24" id="y"/><path fill="#3a414a" d="M114-163C36-179 61-72 57 0H25l-1-190h30c1 12-1 29 2 39 6-27 23-49 58-41v29" id="z"/><path fill="#3a414a" d="M141-36C126-15 110 5 73 4 37 3 15-17 15-53c-1-64 63-63 125-63 3-35-9-54-41-54-24 1-41 7-42 31l-33-3c5-37 33-52 76-52 45 0 72 20 72 64v82c-1 20 7 32 28 27v20c-31 9-61-2-59-35zM48-53c0 20 12 33 32 33 41-3 63-29 60-74-43 2-92-5-92 41" id="A"/><g id="a"><use transform="matrix(0.06172839506172839,0,0,0.06172839506172839,0,0)" xlink:href="#w"/><use transform="matrix(0.06172839506172839,0,0,0.06172839506172839,6.172839506172839,0)" xlink:href="#x"/><use transform="matrix(0.06172839506172839,0,0,0.06172839506172839,18.51851851851852,0)" xlink:href="#y"/><use transform="matrix(0.06172839506172839,0,0,0.06172839506172839,24.691358024691358,0)" xlink:href="#z"/><use transform="matrix(0.06172839506172839,0,0,0.06172839506172839,32.03703703703704,0)" xlink:href="#A"/></g><path fill="#3a414a" d="M205 0l-28-72H64L36 0H1l101-248h38L239 0h-34zm-38-99l-47-123c-12 45-31 82-46 123h93" id="B"/><path fill="#3a414a" d="M85-194c31 0 48 13 60 33l-1-100h32l1 261h-30c-2-10 0-23-3-31C134-8 116 4 85 4 32 4 16-35 15-94c0-66 23-100 70-100zm9 24c-40 0-46 34-46 75 0 40 6 74 45 74 42 0 51-32 51-76 0-42-9-74-50-73" id="C"/><path fill="#3a414a" d="M210-169c-67 3-38 105-44 169h-31v-121c0-29-5-50-35-48C34-165 62-65 56 0H25l-1-190h30c1 10-1 24 2 32 10-44 99-50 107 0 11-21 27-35 58-36 85-2 47 119 55 194h-31v-121c0-29-5-49-35-48" id="D"/><path fill="#3a414a" d="M24-231v-30h32v30H24zM24 0v-190h32V0H24" id="E"/><g id="b"><use transform="matrix(0.06172839506172839,0,0,0.06172839506172839,0,0)" xlink:href="#B"/><use transform="matrix(0.06172839506172839,0,0,0.06172839506172839,14.814814814814813,0)" xlink:href="#C"/><use transform="matrix(0.06172839506172839,0,0,0.06172839506172839,27.160493827160494,0)" xlink:href="#D"/><use transform="matrix(0.06172839506172839,0,0,0.06172839506172839,45.61728395061728,0)" xlink:href="#E"/><use transform="matrix(0.06172839506172839,0,0,0.06172839506172839,50.49382716049382,0)" xlink:href="#x"/></g><path fill="#3a414a" d="M127-220V0H93v-220H8v-28h204v28h-85" id="F"/><path fill="#3a414a" d="M100-194c63 0 86 42 84 106H49c0 40 14 67 53 68 26 1 43-12 49-29l28 8c-11 28-37 45-77 45C44 4 14-33 15-96c1-61 26-98 85-98zm52 81c6-60-76-77-97-28-3 7-6 17-6 28h103" id="G"/><path fill="#3a414a" d="M100-194c62-1 85 37 85 99 1 63-27 99-86 99S16-35 15-95c0-66 28-99 85-99zM99-20c44 1 53-31 53-75 0-43-8-75-51-75s-53 32-53 75 10 74 51 75" id="H"/><g id="c"><use transform="matrix(0.06172839506172839,0,0,0.06172839506172839,0,0)" xlink:href="#F"/><use transform="matrix(0.06172839506172839,0,0,0.06172839506172839,11.049382716049381,0)" xlink:href="#G"/><use transform="matrix(0.06172839506172839,0,0,0.06172839506172839,23.39506172839506,0)" xlink:href="#z"/><use transform="matrix(0.06172839506172839,0,0,0.06172839506172839,30.74074074074074,0)" xlink:href="#z"/><use transform="matrix(0.06172839506172839,0,0,0.06172839506172839,38.08641975308642,0)" xlink:href="#A"/><use transform="matrix(0.06172839506172839,0,0,0.06172839506172839,50.432098765432094,0)" xlink:href="#y"/><use transform="matrix(0.06172839506172839,0,0,0.06172839506172839,56.60493827160494,0)" xlink:href="#H"/><use transform="matrix(0.06172839506172839,0,0,0.06172839506172839,68.95061728395062,0)" xlink:href="#z"/><use transform="matrix(0.06172839506172839,0,0,0.06172839506172839,76.2962962962963,0)" xlink:href="#D"/></g><path fill="#3a414a" d="M137 0h-34L2-248h35l83 218 83-218h36" id="I"/><path fill="#3a414a" d="M59-47c-2 24 18 29 38 22v24C64 9 27 4 27-40v-127H5v-23h24l9-43h21v43h35v23H59v120" id="J"/><path fill="#3a414a" d="M84 4C-5 8 30-112 23-190h32v120c0 31 7 50 39 49 72-2 45-101 50-169h31l1 190h-30c-1-10 1-25-2-33-11 22-28 36-60 37" id="K"/><path fill="#3a414a" d="M24 0v-261h32V0H24" id="L"/><g id="d"><use transform="matrix(0.06172839506172839,0,0,0.06172839506172839,0,0)" xlink:href="#I"/><use transform="matrix(0.06172839506172839,0,0,0.06172839506172839,14.382716049382715,0)" xlink:href="#E"/><use transform="matrix(0.06172839506172839,0,0,0.06172839506172839,19.25925925925926,0)" xlink:href="#z"/><use transform="matrix(0.06172839506172839,0,0,0.06172839506172839,26.604938271604937,0)" xlink:href="#J"/><use transform="matrix(0.06172839506172839,0,0,0.06172839506172839,32.77777777777778,0)" xlink:href="#K"/><use transform="matrix(0.06172839506172839,0,0,0.06172839506172839,45.123456790123456,0)" xlink:href="#A"/><use transform="matrix(0.06172839506172839,0,0,0.06172839506172839,57.46913580246913,0)" xlink:href="#L"/></g><path fill="#3a414a" d="M96-169c-40 0-48 33-48 73s9 75 48 75c24 0 41-14 43-38l32 2c-6 37-31 61-74 61-59 0-76-41-82-99-10-93 101-131 147-64 4 7 5 14 7 22l-32 3c-4-21-16-35-41-35" id="M"/><path fill="#3a414a" d="M106-169C34-169 62-67 57 0H25v-261h32l-1 103c12-21 28-36 61-36 89 0 53 116 60 194h-32v-121c2-32-8-49-39-48" id="N"/><path fill="#3a414a" d="M135-143c-3-34-86-38-87 0 15 53 115 12 119 90S17 21 10-45l28-5c4 36 97 45 98 0-10-56-113-15-118-90-4-57 82-63 122-42 12 7 21 19 24 35" id="O"/><g id="e"><use transform="matrix(0.06172839506172839,0,0,0.06172839506172839,0,0)" xlink:href="#D"/><use transform="matrix(0.06172839506172839,0,0,0.06172839506172839,18.456790123456788,0)" xlink:href="#A"/><use transform="matrix(0.06172839506172839,0,0,0.06172839506172839,30.80246913580247,0)" xlink:href="#M"/><use transform="matrix(0.06172839506172839,0,0,0.06172839506172839,41.91358024691358,0)" xlink:href="#N"/><use transform="matrix(0.06172839506172839,0,0,0.06172839506172839,54.25925925925926,0)" xlink:href="#E"/><use transform="matrix(0.06172839506172839,0,0,0.06172839506172839,59.135802469135804,0)" xlink:href="#x"/><use transform="matrix(0.06172839506172839,0,0,0.06172839506172839,71.48148148148148,0)" xlink:href="#G"/><use transform="matrix(0.06172839506172839,0,0,0.06172839506172839,83.82716049382717,0)" xlink:href="#O"/></g><path fill="#3a414a" d="M194 0L95-120 63-95V0H30v-248h33v124l119-124h40L117-140 236 0h-42" id="P"/><path fill="#3a414a" d="M115-194c53 0 69 39 70 98 0 66-23 100-70 100C84 3 66-7 56-30L54 0H23l1-261h32v101c10-23 28-34 59-34zm-8 174c40 0 45-34 45-75 0-40-5-75-45-74-42 0-51 32-51 76 0 43 10 73 51 73" id="Q"/><g id="f"><use transform="matrix(0.06172839506172839,0,0,0.06172839506172839,0,0)" xlink:href="#P"/><use transform="matrix(0.06172839506172839,0,0,0.06172839506172839,14.814814814814813,0)" xlink:href="#K"/><use transform="matrix(0.06172839506172839,0,0,0.06172839506172839,27.160493827160494,0)" xlink:href="#Q"/><use transform="matrix(0.06172839506172839,0,0,0.06172839506172839,39.50617283950617,0)" xlink:href="#G"/><use transform="matrix(0.06172839506172839,0,0,0.06172839506172839,51.85185185185185,0)" xlink:href="#z"/><use transform="matrix(0.06172839506172839,0,0,0.06172839506172839,59.197530864197525,0)" xlink:href="#x"/><use transform="matrix(0.06172839506172839,0,0,0.06172839506172839,71.5432098765432,0)" xlink:href="#G"/><use transform="matrix(0.06172839506172839,0,0,0.06172839506172839,83.88888888888889,0)" xlink:href="#J"/><use transform="matrix(0.06172839506172839,0,0,0.06172839506172839,90.06172839506172,0)" xlink:href="#G"/><use transform="matrix(0.06172839506172839,0,0,0.06172839506172839,102.4074074074074,0)" xlink:href="#O"/></g><path fill="#3a414a" d="M177-190C167-65 218 103 67 71c-23-6-38-20-44-43l32-5c15 47 100 32 89-28v-30C133-14 115 1 83 1 29 1 15-40 15-95c0-56 16-97 71-98 29-1 48 16 59 35 1-10 0-23 2-32h30zM94-22c36 0 50-32 50-73 0-42-14-75-50-75-39 0-46 34-46 75s6 73 46 73" id="R"/><g id="g"><use transform="matrix(0.06172839506172839,0,0,0.06172839506172839,0,0)" xlink:href="#D"/><use transform="matrix(0.06172839506172839,0,0,0.06172839506172839,18.456790123456788,0)" xlink:href="#A"/><use transform="matrix(0.06172839506172839,0,0,0.06172839506172839,30.80246913580247,0)" xlink:href="#x"/><use transform="matrix(0.06172839506172839,0,0,0.06172839506172839,43.148148148148145,0)" xlink:href="#A"/><use transform="matrix(0.06172839506172839,0,0,0.06172839506172839,55.49382716049382,0)" xlink:href="#R"/><use transform="matrix(0.06172839506172839,0,0,0.06172839506172839,67.8395061728395,0)" xlink:href="#G"/><use transform="matrix(0.06172839506172839,0,0,0.06172839506172839,80.18518518518519,0)" xlink:href="#D"/><use transform="matrix(0.06172839506172839,0,0,0.06172839506172839,98.64197530864197,0)" xlink:href="#G"/><use transform="matrix(0.06172839506172839,0,0,0.06172839506172839,110.98765432098766,0)" xlink:href="#x"/><use transform="matrix(0.06172839506172839,0,0,0.06172839506172839,123.33333333333334,0)" xlink:href="#J"/></g><g id="h"><use transform="matrix(0.06172839506172839,0,0,0.06172839506172839,0,0)" xlink:href="#M"/><use transform="matrix(0.06172839506172839,0,0,0.06172839506172839,11.11111111111111,0)" xlink:href="#L"/><use transform="matrix(0.06172839506172839,0,0,0.06172839506172839,15.987654320987653,0)" xlink:href="#K"/><use transform="matrix(0.06172839506172839,0,0,0.06172839506172839,28.333333333333332,0)" xlink:href="#O"/><use transform="matrix(0.06172839506172839,0,0,0.06172839506172839,39.44444444444444,0)" xlink:href="#J"/><use transform="matrix(0.06172839506172839,0,0,0.06172839506172839,45.617283950617285,0)" xlink:href="#G"/><use transform="matrix(0.06172839506172839,0,0,0.06172839506172839,57.96296296296296,0)" xlink:href="#z"/></g><path fill="#3a414a" d="M197 0v-115H63V0H30v-248h33v105h134v-105h34V0h-34" id="S"/><g id="i"><use transform="matrix(0.06172839506172839,0,0,0.06172839506172839,0,0)" xlink:href="#S"/><use transform="matrix(0.06172839506172839,0,0,0.06172839506172839,15.987654320987653,0)" xlink:href="#G"/><use transform="matrix(0.06172839506172839,0,0,0.06172839506172839,28.333333333333332,0)" xlink:href="#L"/><use transform="matrix(0.06172839506172839,0,0,0.06172839506172839,33.20987654320987,0)" xlink:href="#D"/></g><path fill="#3a414a" d="M233-177c-1 41-23 64-60 70L243 0h-38l-65-103H63V0H30v-248c88 3 205-21 203 71zM63-129c60-2 137 13 137-47 0-61-80-42-137-45v92" id="T"/><g id="j"><use transform="matrix(0.06172839506172839,0,0,0.06172839506172839,0,0)" xlink:href="#T"/><use transform="matrix(0.06172839506172839,0,0,0.06172839506172839,15.987654320987653,0)" xlink:href="#A"/><use transform="matrix(0.06172839506172839,0,0,0.06172839506172839,28.333333333333332,0)" xlink:href="#x"/><use transform="matrix(0.06172839506172839,0,0,0.06172839506172839,40.67901234567901,0)" xlink:href="#M"/><use transform="matrix(0.06172839506172839,0,0,0.06172839506172839,51.79012345679013,0)" xlink:href="#N"/><use transform="matrix(0.06172839506172839,0,0,0.06172839506172839,64.13580246913581,0)" xlink:href="#G"/><use transform="matrix(0.06172839506172839,0,0,0.06172839506172839,76.4814814814815,0)" xlink:href="#z"/></g><path fill="#3a414a" d="M133-34C117-15 103 5 69 4 32 3 11-16 11-54c-1-60 55-63 116-61 1-26-3-47-28-47-18 1-26 9-28 27l-52-2c7-38 36-58 82-57s74 22 75 68l1 82c-1 14 12 18 25 15v27c-30 8-71 5-69-32zm-48 3c29 0 43-24 42-57-32 0-66-3-65 30 0 17 8 27 23 27" id="U"/><path fill="#3a414a" d="M135-194c53 0 70 44 70 98 0 56-19 98-73 100-31 1-45-17-59-34 3 33 2 69 2 105H25l-1-265h48c2 10 0 23 3 31 11-24 29-35 60-35zM114-30c33 0 39-31 40-66 0-38-9-64-40-64-56 0-55 130 0 130" id="V"/><path fill="#3a414a" d="M25 0v-261h50V0H25" id="W"/><path fill="#3a414a" d="M25-224v-37h50v37H25zM25 0v-190h50V0H25" id="X"/><path fill="#3a414a" d="M185-48c-13 30-37 53-82 52C43 2 14-33 14-96s30-98 90-98c62 0 83 45 84 108H66c0 31 8 55 39 56 18 0 30-7 34-22zm-45-69c5-46-57-63-70-21-2 6-4 13-4 21h74" id="Y"/><path fill="#3a414a" d="M137-138c1-29-70-34-71-4 15 46 118 7 119 86 1 83-164 76-172 9l43-7c4 19 20 25 44 25 33 8 57-30 24-41C81-84 22-81 20-136c-2-80 154-74 161-7" id="Z"/><g id="k"><use transform="matrix(0.049366047715882704,0,0,0.049366047715882704,0,0)" xlink:href="#U"/><use transform="matrix(0.049366047715882704,0,0,0.049366047715882704,9.873209543176541,0)" xlink:href="#V"/><use transform="matrix(0.049366047715882704,0,0,0.049366047715882704,20.684373992954853,0)" xlink:href="#V"/><use transform="matrix(0.049366047715882704,0,0,0.049366047715882704,31.495538442733164,0)" xlink:href="#W"/><use transform="matrix(0.049366047715882704,0,0,0.049366047715882704,36.432143214321435,0)" xlink:href="#X"/><use transform="matrix(0.049366047715882704,0,0,0.049366047715882704,41.36874798590971,0)" xlink:href="#Y"/><use transform="matrix(0.049366047715882704,0,0,0.049366047715882704,51.24195752908625,0)" xlink:href="#Z"/></g><path fill="#3a414a" d="M135-150c-39-12-60 13-60 57V0H25l-1-190h47c2 13-1 29 3 40 6-28 27-53 61-41v41" id="aa"/><path fill="#3a414a" d="M110-194c64 0 96 36 96 99 0 64-35 99-97 99-61 0-95-36-95-99 0-62 34-99 96-99zm-1 164c35 0 45-28 45-65 0-40-10-65-43-65-34 0-45 26-45 65 0 36 10 65 43 65" id="ab"/><path fill="#3a414a" d="M128 0H69L1-190h53L99-40l48-150h52" id="ac"/><path fill="#3a414a" d="M135-194c87-1 58 113 63 194h-50c-7-57 23-157-34-157-59 0-34 97-39 157H25l-1-190h47c2 12-1 28 3 38 12-26 28-41 61-42" id="ad"/><g id="l"><use transform="matrix(0.049366047715882704,0,0,0.049366047715882704,0,0)" xlink:href="#V"/><use transform="matrix(0.049366047715882704,0,0,0.049366047715882704,10.811164449778312,0)" xlink:href="#aa"/><use transform="matrix(0.049366047715882704,0,0,0.049366047715882704,17.72241113000189,0)" xlink:href="#ab"/><use transform="matrix(0.049366047715882704,0,0,0.049366047715882704,28.5335755797802,0)" xlink:href="#ac"/><use transform="matrix(0.049366047715882704,0,0,0.049366047715882704,38.40678512295675,0)" xlink:href="#X"/><use transform="matrix(0.049366047715882704,0,0,0.049366047715882704,43.34338989454502,0)" xlink:href="#Z"/><use transform="matrix(0.049366047715882704,0,0,0.049366047715882704,53.21659943772156,0)" xlink:href="#X"/><use transform="matrix(0.049366047715882704,0,0,0.049366047715882704,58.153204209309834,0)" xlink:href="#ab"/><use transform="matrix(0.049366047715882704,0,0,0.049366047715882704,68.96436865908815,0)" xlink:href="#ad"/><use transform="matrix(0.049366047715882704,0,0,0.049366047715882704,79.77553310886647,0)" xlink:href="#Z"/></g><path fill="#3a414a" d="M85 4C-2 5 27-109 22-190h50c7 57-23 150 33 157 60-5 35-97 40-157h50l1 190h-47c-2-12 1-28-3-38-12 25-28 42-61 42" id="ae"/><g id="m"><use transform="matrix(0.049366047715882704,0,0,0.049366047715882704,0,0)" xlink:href="#aa"/><use transform="matrix(0.049366047715882704,0,0,0.049366047715882704,6.911246680223578,0)" xlink:href="#ae"/><use transform="matrix(0.049366047715882704,0,0,0.049366047715882704,17.72241113000189,0)" xlink:href="#ad"/><use transform="matrix(0.049366047715882704,0,0,0.049366047715882704,28.5335755797802,0)" xlink:href="#Z"/></g><path fill="#3a414a" d="M195 0l-88-114-31 24V0H24v-248h52v113l112-113h60L142-143 257 0h-62" id="af"/><path fill="#3a414a" d="M135-194c52 0 70 43 70 98 0 56-19 99-73 100-30 1-46-15-58-35L72 0H24l1-261h50v104c11-23 29-37 60-37zM114-30c31 0 40-27 40-66 0-37-7-63-39-63s-41 28-41 65c0 36 8 64 40 64" id="ag"/><path fill="#3a414a" d="M115-3C79 11 28 4 28-45v-112H4v-33h27l15-45h31v45h36v33H77v99c-1 23 16 31 38 25v30" id="ah"/><g id="n"><use transform="matrix(0.049366047715882704,0,0,0.049366047715882704,0,0)" xlink:href="#af"/><use transform="matrix(0.049366047715882704,0,0,0.049366047715882704,12.78580635841362,0)" xlink:href="#ae"/><use transform="matrix(0.049366047715882704,0,0,0.049366047715882704,23.596970808191934,0)" xlink:href="#ag"/><use transform="matrix(0.049366047715882704,0,0,0.049366047715882704,34.408135257970244,0)" xlink:href="#Y"/><use transform="matrix(0.049366047715882704,0,0,0.049366047715882704,44.28134480114679,0)" xlink:href="#aa"/><use transform="matrix(0.049366047715882704,0,0,0.049366047715882704,51.192591481370364,0)" xlink:href="#ad"/><use transform="matrix(0.049366047715882704,0,0,0.049366047715882704,62.003755931148675,0)" xlink:href="#Y"/><use transform="matrix(0.049366047715882704,0,0,0.049366047715882704,71.87696547432522,0)" xlink:href="#ah"/><use transform="matrix(0.049366047715882704,0,0,0.049366047715882704,77.75152515251526,0)" xlink:href="#Y"/><use transform="matrix(0.049366047715882704,0,0,0.049366047715882704,87.6247346956918,0)" xlink:href="#Z"/></g><g id="o"><use transform="matrix(0.049366047715882704,0,0,0.049366047715882704,0,0)" xlink:href="#X"/><use transform="matrix(0.049366047715882704,0,0,0.049366047715882704,4.936604771588271,0)" xlink:href="#ad"/><use transform="matrix(0.049366047715882704,0,0,0.049366047715882704,15.747769221366582,0)" xlink:href="#Z"/><use transform="matrix(0.049366047715882704,0,0,0.049366047715882704,25.620978764543125,0)" xlink:href="#ah"/><use transform="matrix(0.049366047715882704,0,0,0.049366047715882704,31.495538442733164,0)" xlink:href="#U"/><use transform="matrix(0.049366047715882704,0,0,0.049366047715882704,41.36874798590971,0)" xlink:href="#W"/><use transform="matrix(0.049366047715882704,0,0,0.049366047715882704,46.30535275749798,0)" xlink:href="#W"/></g><path fill="#3a414a" d="M190-63c-7 42-38 67-86 67-59 0-84-38-90-98-12-110 154-137 174-36l-49 2c-2-19-15-32-35-32-30 0-35 28-38 64-6 74 65 87 74 30" id="ai"/><g id="p"><use transform="matrix(0.049366047715882704,0,0,0.049366047715882704,0,0)" xlink:href="#Z"/><use transform="matrix(0.049366047715882704,0,0,0.049366047715882704,9.873209543176541,0)" xlink:href="#ai"/><use transform="matrix(0.049366047715882704,0,0,0.049366047715882704,19.746419086353082,0)" xlink:href="#aa"/><use transform="matrix(0.049366047715882704,0,0,0.049366047715882704,26.65766576657666,0)" xlink:href="#X"/><use transform="matrix(0.049366047715882704,0,0,0.049366047715882704,31.59427053816493,0)" xlink:href="#V"/><use transform="matrix(0.049366047715882704,0,0,0.049366047715882704,42.405434987943245,0)" xlink:href="#ah"/></g><g id="q"><use transform="matrix(0.049366047715882704,0,0,0.049366047715882704,0,0)" xlink:href="#ai"/><use transform="matrix(0.049366047715882704,0,0,0.049366047715882704,9.873209543176541,0)" xlink:href="#aa"/><use transform="matrix(0.049366047715882704,0,0,0.049366047715882704,16.78445622340012,0)" xlink:href="#Y"/><use transform="matrix(0.049366047715882704,0,0,0.049366047715882704,26.657665766576667,0)" xlink:href="#U"/><use transform="matrix(0.049366047715882704,0,0,0.049366047715882704,36.530875309753206,0)" xlink:href="#ah"/><use transform="matrix(0.049366047715882704,0,0,0.049366047715882704,42.405434987943245,0)" xlink:href="#Y"/></g><path fill="#3a414a" d="M30 0v-248h187v28H63v79h144v27H63v87h162V0H30" id="aj"/><path fill="#3a414a" d="M101-251c82-7 93 87 43 132L82-64C71-53 59-42 53-27h129V0H18c2-99 128-94 128-182 0-28-16-43-45-43s-46 15-49 41l-32-3c6-41 34-60 81-64" id="ak"/><path fill="#3a414a" d="M0 4l72-265h28L28 4H0" id="al"/><path fill="#3a414a" d="M126-127c33 6 58 20 58 59 0 88-139 92-164 29-3-8-5-16-6-25l32-3c6 27 21 44 54 44 32 0 52-15 52-46 0-38-36-46-79-43v-28c39 1 72-4 72-42 0-27-17-43-46-43-28 0-47 15-49 41l-32-3c6-42 35-63 81-64 48-1 79 21 79 65 0 36-21 52-52 59" id="am"/><g id="r"><use transform="matrix(0.06172839506172839,0,0,0.06172839506172839,0,0)" xlink:href="#T"/><use transform="matrix(0.06172839506172839,0,0,0.06172839506172839,15.987654320987653,0)" xlink:href="#P"/><use transform="matrix(0.06172839506172839,0,0,0.06172839506172839,30.80246913580247,0)" xlink:href="#aj"/><use transform="matrix(0.06172839506172839,0,0,0.06172839506172839,45.61728395061728,0)" xlink:href="#ak"/><use transform="matrix(0.06172839506172839,0,0,0.06172839506172839,57.962962962962955,0)" xlink:href="#al"/><use transform="matrix(0.06172839506172839,0,0,0.06172839506172839,64.1358024691358,0)" xlink:href="#P"/><use transform="matrix(0.06172839506172839,0,0,0.06172839506172839,78.9506172839506,0)" xlink:href="#am"/><use transform="matrix(0.06172839506172839,0,0,0.06172839506172839,91.29629629629629,0)" xlink:href="#O"/></g><g id="s"><use transform="matrix(0.049366047715882704,0,0,0.049366047715882704,0,0)" xlink:href="#X"/><use transform="matrix(0.049366047715882704,0,0,0.049366047715882704,4.936604771588271,0)" xlink:href="#ad"/><use transform="matrix(0.049366047715882704,0,0,0.049366047715882704,15.747769221366582,0)" xlink:href="#Z"/><use transform="matrix(0.049366047715882704,0,0,0.049366047715882704,25.620978764543125,0)" xlink:href="#ah"/><use transform="matrix(0.049366047715882704,0,0,0.049366047715882704,31.495538442733164,0)" xlink:href="#U"/><use transform="matrix(0.049366047715882704,0,0,0.049366047715882704,41.36874798590971,0)" xlink:href="#W"/><use transform="matrix(0.049366047715882704,0,0,0.049366047715882704,46.30535275749798,0)" xlink:href="#W"/></g><path fill="#3a414a" d="M14-72v-43h91v43H14" id="an"/><path fill="#3a414a" d="M220-157c-53 9-28 100-34 157h-49v-107c1-27-5-49-29-50C55-147 81-57 75 0H25l-1-190h47c2 12-1 28 3 38 10-53 101-56 108 0 13-22 24-43 59-42 82 1 51 116 57 194h-49v-107c-1-25-5-48-29-50" id="ao"/><path fill="#3a414a" d="M195-6C206 82 75 100 31 46c-4-6-6-13-8-21l49-6c3 16 16 24 34 25 40 0 42-37 40-79-11 22-30 35-61 35-53 0-70-43-70-97 0-56 18-96 73-97 30 0 46 14 59 34l2-30h47zm-90-29c32 0 41-27 41-63 0-35-9-62-40-62-32 0-39 29-40 63 0 36 9 62 39 62" id="ap"/><g id="t"><use transform="matrix(0.049366047715882704,0,0,0.049366047715882704,0,0)" xlink:href="#ai"/><use transform="matrix(0.049366047715882704,0,0,0.049366047715882704,9.873209543176541,0)" xlink:href="#Y"/><use transform="matrix(0.049366047715882704,0,0,0.049366047715882704,19.746419086353082,0)" xlink:href="#aa"/><use transform="matrix(0.049366047715882704,0,0,0.049366047715882704,26.65766576657666,0)" xlink:href="#ah"/><use transform="matrix(0.049366047715882704,0,0,0.049366047715882704,32.5322254447667,0)" xlink:href="#an"/><use transform="matrix(0.049366047715882704,0,0,0.049366047715882704,38.40678512295674,0)" xlink:href="#ao"/><use transform="matrix(0.049366047715882704,0,0,0.049366047715882704,54.20392039203921,0)" xlink:href="#U"/><use transform="matrix(0.049366047715882704,0,0,0.049366047715882704,64.07712993521575,0)" xlink:href="#ad"/><use transform="matrix(0.049366047715882704,0,0,0.049366047715882704,74.88829438499407,0)" xlink:href="#U"/><use transform="matrix(0.049366047715882704,0,0,0.049366047715882704,84.76150392817061,0)" xlink:href="#ap"/><use transform="matrix(0.049366047715882704,0,0,0.049366047715882704,95.57266837794893,0)" xlink:href="#Y"/><use transform="matrix(0.049366047715882704,0,0,0.049366047715882704,105.44587792112547,0)" xlink:href="#aa"/></g><path fill="#3a414a" d="M114-157C55-157 80-60 75 0H25v-261h50l-1 109c12-26 28-41 61-42 86-1 58 113 63 194h-50c-7-57 23-157-34-157" id="aq"/><g id="u"><use transform="matrix(0.049366047715882704,0,0,0.049366047715882704,0,0)" xlink:href="#aa"/><use transform="matrix(0.049366047715882704,0,0,0.049366047715882704,6.911246680223578,0)" xlink:href="#U"/><use transform="matrix(0.049366047715882704,0,0,0.049366047715882704,16.78445622340012,0)" xlink:href="#ad"/><use transform="matrix(0.049366047715882704,0,0,0.049366047715882704,27.59562067317843,0)" xlink:href="#ai"/><use transform="matrix(0.049366047715882704,0,0,0.049366047715882704,37.468830216354974,0)" xlink:href="#aq"/><use transform="matrix(0.049366047715882704,0,0,0.049366047715882704,48.279994666133284,0)" xlink:href="#Y"/><use transform="matrix(0.049366047715882704,0,0,0.049366047715882704,58.15320420930983,0)" xlink:href="#aa"/></g><g id="v"><use transform="matrix(0.049366047715882704,0,0,0.049366047715882704,0,0)" xlink:href="#aa"/><use transform="matrix(0.049366047715882704,0,0,0.049366047715882704,6.911246680223578,0)" xlink:href="#ae"/><use transform="matrix(0.049366047715882704,0,0,0.049366047715882704,17.72241113000189,0)" xlink:href="#ad"/><use transform="matrix(0.049366047715882704,0,0,0.049366047715882704,28.5335755797802,0)" xlink:href="#Z"/></g></defs></g></svg>